<svg version="1.0" xmlns="http://www.w3.org/2000/svg" width="225.000000pt" height="225.000000pt"
    viewBox="0 0 225.000000 225.000000" preserveAspectRatio="xMidYMid meet">
    <g transform="translate(0.000000,225.000000) scale(0.100000,-0.100000)" fill="#fff" stroke="none">
        <path d=" M405 1845 l-25 -24 0 -696 0 -696 25 -24 24 -25 365 0 365 0 28 24 28 24 3 161 3 161 294 0 293 0 31 26 31
            26 0 509 0 510 -25 24 -24 25 -696 0 -696 0 -24 -25z m625 -770 l0 -515 -235 0 -235 0 0 515 0 515 235 0 235 0
            0 -515z m660 190 l0 -325 -235 0 -235 0 0 325 0 325 235 0 235 0 0 -325z" />
    </g>
</svg>